<?xml version="1.0" encoding="UTF-8"?>
<svg id="Layer_2" data-name="Layer 2" xmlns="http://www.w3.org/2000/svg" viewBox="0 0 341.5 341.5">
  <defs>
    <style>
      .cls-1 {
        fill: #f5f3ee;
      }

      .cls-2 {
        fill: #a4dcff;
      }

      .cls-3 {
        fill: #588aad;
      }
    </style>
  </defs>
  <g id="Layer_3" data-name="Layer 3">
    <g>
      <circle class="cls-2" cx="170.75" cy="170.75" r="170.75"/>
      <path class="cls-1" d="m265.06,108.05h-.75c-7.17-25.69-30.72-44.54-58.69-44.54s-51.53,18.85-58.69,44.54h-11.03c-23.88,0-43.42,19.54-43.42,43.42v2.36c0,23.88,19.54,43.42,43.42,43.42h129.17c23.88,0,43.42-19.54,43.42-43.42v-2.36c0-23.88-19.54-43.42-43.42-43.42Z"/>
      <path class="cls-3" d="m216.66,162.08h-.75c-7.17-25.69-30.72-44.54-58.69-44.54s-51.53,18.85-58.69,44.54h-11.03c-23.88,0-43.42,19.54-43.42,43.42v2.36c0,23.88,19.54,43.42,43.42,43.42h129.17c23.88,0,43.42-19.54,43.42-43.42v-2.36c0-23.88-19.54-43.42-43.42-43.42Z"/>
    </g>
  </g>
</svg>