<?xml version="1.0" encoding="UTF-8"?>
<svg id="Layer_2" data-name="Layer 2" xmlns="http://www.w3.org/2000/svg" viewBox="0 0 341.5 341.5">
  <defs>
    <style>
      .cls-1 {
        fill: #f4a240;
      }

      .cls-2 {
        fill: #a4dcff;
      }

      .cls-3 {
        fill: #588aad;
      }
    </style>
  </defs>
  <g id="Layer_3" data-name="Layer 3">
    <g>
      <circle class="cls-2" cx="170.75" cy="170.75" r="170.75"/>
      <g>
        <circle class="cls-1" cx="205.02" cy="147.96" r="54.09"/>
        <polygon class="cls-1" points="205.02 55.62 191.57 83.29 218.47 83.29 205.02 55.62"/>
        <polygon class="cls-1" points="167.46 63.61 166.43 94.36 191.01 83.41 167.46 63.61"/>
        <polygon class="cls-1" points="136.4 86.18 147.96 114.69 165.96 94.7 136.4 86.18"/>
        <polygon class="cls-1" points="117.2 119.43 139.36 140.77 147.67 115.19 117.2 119.43"/>
        <polygon class="cls-1" points="113.19 157.62 142.11 168.1 139.3 141.35 113.19 157.62"/>
        <polygon class="cls-1" points="125.05 194.14 155.74 191.95 142.29 168.65 125.05 194.14"/>
        <polygon class="cls-1" points="150.75 222.67 177.89 208.19 156.13 192.38 150.75 222.67"/>
        <polygon class="cls-1" points="185.82 238.29 204.73 214.02 178.42 208.43 185.82 238.29"/>
        <polygon class="cls-1" points="224.22 238.29 231.63 208.43 205.31 214.02 224.22 238.29"/>
        <polygon class="cls-1" points="259.3 222.67 253.92 192.38 232.16 208.19 259.3 222.67"/>
        <polygon class="cls-1" points="284.99 194.14 267.76 168.65 254.31 191.95 284.99 194.14"/>
        <polygon class="cls-1" points="296.86 157.62 270.75 141.35 267.93 168.1 296.86 157.62"/>
        <polygon class="cls-1" points="292.85 119.43 262.37 115.19 270.69 140.77 292.85 119.43"/>
        <polygon class="cls-1" points="273.65 86.18 244.08 94.7 262.08 114.69 273.65 86.18"/>
        <polygon class="cls-1" points="242.58 63.61 219.04 83.41 243.61 94.36 242.58 63.61"/>
      </g>
      <path class="cls-3" d="m216.66,162.08h-.75c-7.17-25.69-30.72-44.54-58.69-44.54s-51.53,18.85-58.69,44.54h-11.03c-23.88,0-43.42,19.54-43.42,43.42v2.36c0,23.88,19.54,43.42,43.42,43.42h129.17c23.88,0,43.42-19.54,43.42-43.42v-2.36c0-23.88-19.54-43.42-43.42-43.42Z"/>
    </g>
  </g>
</svg>