<?xml version="1.0" encoding="UTF-8"?>
<svg id="Layer_2" data-name="Layer 2" xmlns="http://www.w3.org/2000/svg" viewBox="0 0 341.5 341.5">
  <defs>
    <style>
      .cls-1 {
        fill: #f5f3ee;
      }

      .cls-2 {
        fill: #a4dcff;
      }

      .cls-3 {
        stroke-dasharray: 0 0 12.92 12.92;
      }

      .cls-3, .cls-4, .cls-5, .cls-6, .cls-7, .cls-8 {
        fill: none;
        stroke: #588aad;
        stroke-linecap: round;
        stroke-linejoin: round;
        stroke-width: 9.6px;
      }

      .cls-5 {
        stroke-dasharray: 0 0 14.97 14.97;
      }

      .cls-6 {
        stroke-dasharray: 0 0 15.56 15.56;
      }

      .cls-7 {
        stroke-dasharray: 0 0 16.35 16.35;
      }

      .cls-8 {
        stroke-dasharray: 0 0 13.69 13.69;
      }
    </style>
  </defs>
  <g id="Layer_3" data-name="Layer 3">
    <g>
      <circle class="cls-2" cx="170.75" cy="170.75" r="170.75"/>
      <g>
        <path class="cls-1" d="m235.34,103.05h-.75c-7.17-25.69-30.72-44.54-58.69-44.54s-51.53,18.85-58.69,44.54h-11.03c-23.88,0-43.42,19.54-43.42,43.42v2.36c0,23.88,19.54,43.42,43.42,43.42h129.17c23.88,0,43.42-19.54,43.42-43.42v-2.36c0-23.88-19.54-43.42-43.42-43.42Z"/>
        <g>
          <line class="cls-4" x1="176.34" y1="205.79" x2="176.34" y2="213.01"/>
          <line class="cls-3" x1="176.34" y1="225.93" x2="176.34" y2="271.16"/>
          <line class="cls-4" x1="176.34" y1="277.62" x2="176.34" y2="284.84"/>
        </g>
        <g>
          <line class="cls-4" x1="204.8" y1="205.79" x2="204.8" y2="214.43"/>
          <line class="cls-6" x1="204.8" y1="229.99" x2="204.8" y2="253.32"/>
          <line class="cls-4" x1="204.8" y1="261.1" x2="204.8" y2="269.74"/>
        </g>
        <g>
          <line class="cls-4" x1="233.26" y1="205.79" x2="233.26" y2="213.01"/>
          <line class="cls-5" x1="233.26" y1="227.98" x2="233.26" y2="250.43"/>
          <line class="cls-4" x1="233.26" y1="257.91" x2="233.26" y2="265.13"/>
        </g>
        <g>
          <line class="cls-4" x1="147.87" y1="205.79" x2="147.87" y2="214.43"/>
          <line class="cls-8" x1="147.87" y1="228.12" x2="147.87" y2="276.05"/>
          <line class="cls-4" x1="147.87" y1="282.89" x2="147.87" y2="291.54"/>
        </g>
        <g>
          <line class="cls-4" x1="119.41" y1="205.79" x2="119.41" y2="214.81"/>
          <line class="cls-7" x1="119.41" y1="231.16" x2="119.41" y2="255.68"/>
          <line class="cls-4" x1="119.41" y1="263.86" x2="119.41" y2="272.88"/>
        </g>
      </g>
    </g>
  </g>
</svg>