<?xml version="1.0" encoding="UTF-8"?>
<svg id="Layer_2" data-name="Layer 2" xmlns="http://www.w3.org/2000/svg" viewBox="0 0 341.5 341.5">
  <defs>
    <style>
      .cls-1 {
        fill: #f5f3ee;
      }

      .cls-2 {
        fill: #a4dcff;
      }

      .cls-3 {
        fill: #588aad;
      }

      .cls-4 {
        stroke-dasharray: 0 0 12.92 12.92;
      }

      .cls-4, .cls-5, .cls-6, .cls-7, .cls-8, .cls-9 {
        fill: none;
        stroke: #588aad;
        stroke-linecap: round;
        stroke-linejoin: round;
        stroke-width: 9.6px;
      }

      .cls-6 {
        stroke-dasharray: 0 0 14.97 14.97;
      }

      .cls-7 {
        stroke-dasharray: 0 0 15.56 15.56;
      }

      .cls-8 {
        stroke-dasharray: 0 0 16.35 16.35;
      }

      .cls-9 {
        stroke-dasharray: 0 0 13.69 13.69;
      }
    </style>
  </defs>
  <g id="Layer_3" data-name="Layer 3">
    <g>
      <circle class="cls-2" cx="170.75" cy="170.75" r="170.75"/>
      <path class="cls-3" d="m268.55,82.62h-.56c-5.36-19.23-22.99-33.34-43.93-33.34s-38.57,14.11-43.93,33.34h-8.26c-17.87,0-32.5,14.62-32.5,32.5v1.77c0,17.87,14.62,32.5,32.5,32.5h96.68c17.87,0,32.5-14.62,32.5-32.5v-1.77c0-17.87-14.62-32.5-32.5-32.5Z"/>
      <g>
        <path class="cls-1" d="m234.26,107.7h-.75c-7.17-25.69-30.72-44.54-58.69-44.54s-51.53,18.85-58.69,44.54h-11.03c-23.88,0-43.42,19.54-43.42,43.42v2.36c0,23.88,19.54,43.42,43.42,43.42h129.17c23.88,0,43.42-19.54,43.42-43.42v-2.36c0-23.88-19.54-43.42-43.42-43.42Z"/>
        <g>
          <line class="cls-5" x1="175.26" y1="210.44" x2="175.26" y2="217.66"/>
          <line class="cls-4" x1="175.26" y1="230.58" x2="175.26" y2="275.81"/>
          <line class="cls-5" x1="175.26" y1="282.27" x2="175.26" y2="289.49"/>
        </g>
        <g>
          <line class="cls-5" x1="203.72" y1="210.44" x2="203.72" y2="219.08"/>
          <line class="cls-7" x1="203.72" y1="234.63" x2="203.72" y2="257.97"/>
          <line class="cls-5" x1="203.72" y1="265.74" x2="203.72" y2="274.39"/>
        </g>
        <g>
          <line class="cls-5" x1="232.19" y1="210.44" x2="232.19" y2="217.66"/>
          <line class="cls-6" x1="232.19" y1="232.62" x2="232.19" y2="255.08"/>
          <line class="cls-5" x1="232.19" y1="262.56" x2="232.19" y2="269.78"/>
        </g>
        <g>
          <line class="cls-5" x1="146.8" y1="210.44" x2="146.8" y2="219.08"/>
          <line class="cls-9" x1="146.8" y1="232.77" x2="146.8" y2="280.69"/>
          <line class="cls-5" x1="146.8" y1="287.54" x2="146.8" y2="296.18"/>
        </g>
        <g>
          <line class="cls-5" x1="118.33" y1="210.44" x2="118.33" y2="219.46"/>
          <line class="cls-8" x1="118.33" y1="235.81" x2="118.33" y2="260.33"/>
          <line class="cls-5" x1="118.33" y1="268.5" x2="118.33" y2="277.53"/>
        </g>
      </g>
    </g>
  </g>
</svg>