<?xml version="1.0" encoding="UTF-8"?>
<svg id="Layer_2" data-name="Layer 2" xmlns="http://www.w3.org/2000/svg" viewBox="0 0 341.5 341.5">
  <defs>
    <style>
      .cls-1 {
        fill: #f4a240;
      }

      .cls-2 {
        fill: #a4dcff;
      }

      .cls-3 {
        fill: #588aad;
      }
    </style>
  </defs>
  <g id="Layer_3" data-name="Layer 3">
    <g>
      <circle class="cls-2" cx="170.75" cy="170.75" r="170.75"/>
      <g>
        <path class="cls-3" d="m233.31,133.93h-.73c-6.94-24.88-29.76-43.14-56.85-43.14s-49.91,18.26-56.85,43.14h-10.69c-23.13,0-42.05,18.92-42.05,42.05v2.29c0,23.13,18.92,42.05,42.05,42.05h125.12c23.13,0,42.05-18.92,42.05-42.05v-2.29c0-23.13-18.92-42.05-42.05-42.05Z"/>
        <polygon class="cls-1" points="148.29 171.14 129.22 169.33 116.25 207.09 134 209.69 115.63 235.98 134.85 235.98 117.24 271.34 153.63 226.65 137.6 226.25 155.94 201.6 135.72 199.11 148.29 171.14"/>
      </g>
    </g>
  </g>
</svg>