<?xml version="1.0" encoding="utf-8"?>
<!-- Generator: Adobe Illustrator 27.3.0, SVG Export Plug-In . SVG Version: 6.00 Build 0)  -->
<svg version="1.1" xmlns="http://www.w3.org/2000/svg" xmlns:xlink="http://www.w3.org/1999/xlink" x="0px" y="0px"
	 viewBox="0 0 825 360" style="enable-background:new 0 0 825 360;" xml:space="preserve">
<style type="text/css">
	.st0{fill:#588AAD;}
	.st1{fill:#3C3C3C;}
	.st2{display:none;}
</style>
<g id="Layer_1">
	<g>
		<path class="st0" d="M54.8,169.5v-67.7h-21v-15h58.8v15H72v67.7H54.8z"/>
		<path class="st0" d="M101.1,169.5V86.8h17.2v35.7h32.2V86.8h17.2v82.7h-17.2v-32h-32.2v32H101.1z"/>
		<path class="st0" d="M182.4,169.5V86.8h55.6v15h-38.4v18.8h36.2v15h-36.2v19h38.4v15H182.4z"/>
		<path class="st0" d="M283.2,169.5l-21.6-82.7h18.6l16.3,69.2h-5l17.2-69.2h17.8l17.2,69.2h-5L355,86.8h18.6L352,169.5h-20
			l-17.3-66.6h5.8l-17.3,66.6H283.2z"/>
		<path class="st0" d="M382.2,169.5V86.8h55.6v15h-38.4v18.8h36.2v15h-36.2v19h38.4v15H382.2z"/>
		<path class="st0" d="M441.4,169.5l28-82.7h22.9l28,82.7h-18.8l-5.5-16.9h-30.3l-5.5,16.9H441.4z M470.4,137.6h20.7l-12.6-39.1h4.7
			L470.4,137.6z"/>
		<path class="st0" d="M538.1,169.5v-67.7h-21v-15h58.8v15h-20.6v67.7H538.1z"/>
		<path class="st0" d="M584.5,169.5V86.8h17.2v35.7h32.2V86.8H651v82.7h-17.2v-32h-32.2v32H584.5z"/>
		<path class="st0" d="M665.7,169.5V86.8h55.6v15h-38.4v18.8h36.2v15h-36.2v19h38.4v15H665.7z"/>
		<path class="st0" d="M731,169.5V86.8h31.6c5.7,0,10.7,1,15.1,3c4.4,2,7.9,5,10.4,8.9c2.5,3.9,3.8,8.8,3.8,14.5
			c0,5.6-1.3,10.4-3.9,14.4c-2.6,4-6.1,6.9-10.4,8.9l18.9,33h-19.3L756.8,133l11.1,6.5h-19.6v30H731z M748.2,124.5h14.5
			c2.4,0,4.5-0.5,6.3-1.4c1.8-1,3.2-2.3,4.2-4c1-1.7,1.5-3.7,1.5-5.9c0-2.3-0.5-4.3-1.5-6c-1-1.7-2.4-3-4.2-4
			c-1.8-1-3.9-1.4-6.3-1.4h-14.5V124.5z"/>
	</g>
	<g>
		<path class="st0" d="M134.6,273.8v-82.7h56.6v15h-39.4v21h33.8v15h-33.8v31.7H134.6z"/>
		<path class="st1" d="M228.8,244.5c-4,0-7.7-0.7-11.1-2.1c-3.4-1.4-6.4-3.3-8.9-5.8c-2.5-2.5-4.5-5.4-5.9-8.7
			c-1.4-3.3-2.1-6.9-2.1-10.8c0-3.9,0.7-7.5,2.1-10.8c1.4-3.3,3.4-6.2,5.9-8.7c2.5-2.5,5.5-4.4,8.9-5.8c3.4-1.4,7.1-2.1,11.2-2.1
			c4,0,7.8,0.7,11.2,2.1c3.4,1.4,6.4,3.3,8.9,5.8c2.5,2.5,4.5,5.4,5.9,8.7c1.4,3.3,2.1,6.9,2.1,10.8c0,3.9-0.7,7.5-2.1,10.8
			c-1.4,3.3-3.4,6.2-5.9,8.7c-2.5,2.5-5.5,4.4-8.9,5.8S232.7,244.5,228.8,244.5z M228.8,234.6c2.4,0,4.7-0.4,6.7-1.3
			c2.1-0.9,3.9-2.1,5.4-3.6c1.6-1.5,2.8-3.4,3.6-5.5c0.9-2.1,1.3-4.5,1.3-7c0-2.6-0.4-4.9-1.3-7c-0.9-2.1-2.1-4-3.6-5.5
			c-1.6-1.6-3.4-2.8-5.4-3.6c-2.1-0.8-4.3-1.2-6.7-1.2c-2.4,0-4.7,0.4-6.7,1.2c-2.1,0.8-3.9,2-5.4,3.6c-1.6,1.6-2.8,3.4-3.6,5.5
			c-0.9,2.1-1.3,4.4-1.3,7c0,2.6,0.4,4.9,1.3,7c0.9,2.1,2.1,4,3.6,5.5c1.6,1.5,3.4,2.7,5.4,3.6C224.1,234.1,226.3,234.6,228.8,234.6
			z"/>
		<path class="st0" d="M266,273.8v-82.7h31.6c5.7,0,10.7,1,15.1,3c4.4,2,7.9,5,10.4,8.9c2.5,3.9,3.8,8.8,3.8,14.5
			c0,5.6-1.3,10.4-3.9,14.4c-2.6,4-6.1,6.9-10.4,8.9l18.9,33h-19.3l-20.4-36.5l11.1,6.5h-19.6v30H266z M283.2,228.8h14.5
			c2.4,0,4.5-0.5,6.3-1.4c1.8-1,3.2-2.3,4.2-4c1-1.7,1.5-3.7,1.5-5.9c0-2.3-0.5-4.3-1.5-6c-1-1.7-2.4-3-4.2-4
			c-1.8-1-3.9-1.4-6.3-1.4h-14.5V228.8z"/>
		<path class="st0" d="M340,273.8v-82.7h55.6v15h-38.4v18.8h36.2v15h-36.2v19h38.4v15H340z"/>
		<path class="st0" d="M444.7,275.1c-5.9,0-11.4-1.1-16.5-3.2s-9.5-5.1-13.3-9c-3.8-3.8-6.7-8.4-8.8-13.5c-2.1-5.2-3.2-10.8-3.2-17
			c0-6.1,1-11.8,3.1-17c2.1-5.2,5-9.7,8.8-13.5c3.8-3.8,8.2-6.8,13.3-8.9c5.1-2.1,10.6-3.2,16.6-3.2c6,0,11.4,1,16.1,3
			c4.8,2,8.8,4.7,12.1,8s5.7,7,7.1,11.1l-15.2,7.3c-1.4-4-3.9-7.3-7.4-9.9c-3.5-2.6-7.8-3.9-12.8-3.9c-4.9,0-9.2,1.1-12.9,3.4
			c-3.7,2.3-6.6,5.5-8.6,9.5c-2,4-3.1,8.7-3.1,14.1c0,5.4,1,10.1,3.1,14.2c2,4.1,4.9,7.3,8.6,9.5c3.7,2.3,8,3.4,12.9,3.4
			c5,0,9.3-1.3,12.8-3.9c3.5-2.6,6-5.9,7.4-9.9l15.2,7.3c-1.4,4.1-3.8,7.8-7.1,11.1s-7.4,6-12.1,8
			C456,274.1,450.7,275.1,444.7,275.1z"/>
		<path class="st0" d="M484.9,273.8l28-82.7h22.9l28,82.7H545l-5.5-16.9h-30.3l-5.5,16.9H484.9z M513.9,241.9h20.7L522,202.9h4.7
			L513.9,241.9z"/>
		<path class="st0" d="M601.2,275.1c-5.2,0-10-0.9-14.6-2.8c-4.5-1.9-8.5-4.6-11.8-8c-3.3-3.5-5.8-7.6-7.4-12.3l14.1-6.3
			c2.1,4.5,4.9,8.1,8.6,10.7c3.7,2.6,7.7,3.9,12.2,3.9c2.4,0,4.4-0.4,6.1-1.1c1.7-0.7,3-1.8,4-3.1c1-1.3,1.4-2.8,1.4-4.6
			c0-1.9-0.6-3.6-1.8-4.9c-1.2-1.4-3-2.5-5.5-3.3l-16.2-5.3c-6.6-2.1-11.5-5.2-14.9-9.2c-3.3-4-5-8.7-5-14.3c0-4.9,1.2-9.2,3.6-12.9
			c2.4-3.7,5.8-6.6,10.1-8.7c4.3-2.1,9.3-3.1,14.9-3.1c5,0,9.5,0.9,13.8,2.6c4.2,1.7,7.9,4.1,10.9,7.2c3.1,3.1,5.4,6.8,6.9,11.2
			l-14,6.3c-1.6-3.8-3.9-6.9-7-9c-3.1-2.2-6.7-3.3-10.7-3.3c-2.3,0-4.3,0.4-6.1,1.1c-1.8,0.7-3.1,1.8-4.1,3.2
			c-1,1.4-1.4,2.9-1.4,4.7c0,1.9,0.6,3.6,1.9,5c1.3,1.4,3.1,2.6,5.7,3.4l15.9,5.1c6.7,2.1,11.6,5.1,14.9,9c3.3,3.8,4.9,8.5,4.9,14.1
			c0,4.8-1.3,9.1-3.8,12.8c-2.5,3.7-6,6.7-10.4,8.8C612.2,274.1,607.1,275.1,601.2,275.1z"/>
		<path class="st0" d="M657.8,273.8v-67.7h-21v-15h58.8v15H675v67.7H657.8z"/>
	</g>
</g>
<g id="Layer_2" class="st2">
</g>
</svg>
